<svg xmlns="http://www.w3.org/2000/svg" viewBox="0 0 48 48" role="img" aria-label="Google">
    <path fill="#EA4335" d="M24 9.5c3.54 0 6.72 1.22 9.22 3.6l6.88-6.88C35.94 2.34 30.52 0 24 0 14.62 0 6.52 5.38 2.58 13.22l8 6.2C12.46 13.72 17.78 9.5 24 9.5Z" />
    <path fill="#4285F4" d="M46.98 24.55c0-1.62-.15-3.18-.42-4.68H24v9.02h12.94c-.56 2.9-2.24 5.36-4.78 7.02l7.36 5.7c4.3-3.96 7.46-9.8 7.46-17.06Z" />
    <path fill="#FBBC05" d="M10.58 28.58A14.36 14.36 0 0 1 9.8 24c0-1.58.27-3.12.78-4.58l-8-6.2A23.86 23.86 0 0 0 0 24c0 3.86.92 7.5 2.58 10.78l8-6.2Z" />
    <path fill="#34A853" d="M24 48c6.48 0 11.92-2.14 15.9-5.82l-7.74-6c-2.14 1.44-4.9 2.3-8.16 2.3-6.22 0-11.54-4.22-13.42-9.9l-8 6.2C6.52 42.62 14.62 48 24 48Z" />
</svg>
